<svg xmlns="http://www.w3.org/2000/svg" version="1.1"><polyline points="259.0,153.5,257.0,161.5,260.5,176.0,274.5,173.0" stroke="black" stroke-width="2" fill="none" />
<polyline points="264.5,169.0,267.5,161.0" stroke="black" stroke-width="2" fill="none" />
<polyline points="257.0,177.5,254.0,169.5,261.5,167.5,257.5,164.0,266.5,159.0,261.5,150.5,258.5,149.5,264.5,145.5,260.5,138.5,250.0,134.5,250.0,126.5,248.0,118.5,247.0,110.5,249.0,102.5,248.0,94.5,250.0,86.5,250.0,78.0,251.0,70.5,251.5,62.5,251.5,54.5,247.5,46.0,248.5,38.0,250.0,30.0,255.0,22.0,258.5,14.5,253.5,8.5,254.5,19.5" stroke="black" stroke-width="2" fill="none" />
<polyline points="251.0,31.5,256.0,30.5,264.5,29.0" stroke="black" stroke-width="2" fill="none" />
<polyline points="248.5,32.0,260.5,30.0,255.5,33.0,264.5,35.0,266.0,43.0,263.0,50.5,261.5,58.5,262.5,66.0,262.0,74.0,264.0,81.5,262.5,90.0,263.5,98.0,255.0,104.0,261.0,97.0,265.0,104.0,269.5,110.0,263.5,113.0,255.5,122.0,255.0,134.0,251.0,137.0,252.5,144.0,253.0,152.0,255.0,160.0,246.0,160.0,245.5,168.0,251.5,176.0,244.5,177.0,247.0,190.5,247.0,200.5,245.0,208.5,243.5,216.5,240.0,218.5,239.0,224.0,233.0,229.0,233.0,236.0,233.0,245.0,229.0,259.0,223.5,260.0,223.5,268.0,222.5,277.5,212.5,285.5,206.5,291.5,200.0,295.0,194.0,296.0,184.0,308.0,180.0,316.0,179.0,323.5,184.5,329.5,192.5,323.5,200.0,325.5,208.0,325.0,216.0,322.0,224.0,325.5,238.0,324.5,238.0,327.5" stroke="black" stroke-width="2" fill="none" />
<polyline points="246.5,320.0,255.0,321.0,262.5,319.5,270.5,319.0,272.5,313.0" stroke="black" stroke-width="2" fill="none" />
<polyline points="271.0,323.0,262.5,323.5,254.5,327.5,251.0,323.0,243.0,322.0,235.0,322.0,227.0,319.0,222.5,316.0,214.5,315.0,206.5,313.0" stroke="black" stroke-width="2" fill="none" />
<polyline points="205.5,318.5,218.5,322.5" stroke="black" stroke-width="2" fill="none" />
<polyline points="221.5,301.0,229.5,309.0,237.5,312.5,248.0,312.5,255.5,312.5" stroke="black" stroke-width="2" fill="none" />
<polyline points="260.5,310.5,252.5,309.5,244.5,308.5" stroke="black" stroke-width="2" fill="none" />
<polyline points="245.0,306.5,252.5,306.5,260.5,306.0" stroke="black" stroke-width="2" fill="none" />
<polyline points="274.5,301.0,274.5,309.0,272.5,318.5,269.5,324.5,277.5,324.5,280.5,316.5,284.0,320.5,292.0,324.0" stroke="black" stroke-width="2" fill="none" />
<polyline points="293.0,312.5,285.0,312.5" stroke="black" stroke-width="2" fill="none" />
<polyline points="287.5,305.0,277.0,311.0,277.0,303.0" stroke="black" stroke-width="2" fill="none" />
<polyline points="285.0,288.5,277.0,284.5,268.5,281.0,260.5,280.0,252.5,280.5,245.0,281.5,237.0,285.0,228.5,291.5,220.5,299.5" stroke="black" stroke-width="2" fill="none" />
<polyline points="215.5,272.5,207.5,270.5,199.5,273.5" stroke="black" stroke-width="2" fill="none" />
<polyline points="192.0,276.0,200.0,269.0,208.5,267.0,215.5,269.0,213.5,277.5,208.5,277.5,208.0,286.0,202.0,294.5,193.0,294.5,198.5,292.5,204.5,292.5,212.5,280.5" stroke="black" stroke-width="2" fill="none" />
<polyline points="203.5,261.0,211.0,254.5,221.5,254.5,221.5,260.5,230.0,257.5,238.0,253.5,246.0,254.0,254.0,254.5,261.5,254.5,269.5,255.0,277.5,255.0,286.0,256.0,294.0,255.5,302.0,254.5,306.5,260.0" stroke="black" stroke-width="2" fill="none" />
<polyline points="299.0,266.5,307.0,266.5,314.5,270.5,322.5,279.5,330.0,290.5,337.5,290.5,345.5,284.5,353.5,281.5,361.5,283.5,368.5,291.0,376.5,287.5,384.5,287.5" stroke="black" stroke-width="2" fill="none" />
<polyline points="391.0,275.0,399.5,270.5,407.5,267.5,416.0,263.5,424.0,261.0,432.0,260.5,440.5,255.0,448.0,253.0,456.0,250.0,464.5,248.0,472.5,245.0,480.5,241.0,488.0,238.5,496.0,235.5,504.0,231.0,501.0,232.5" stroke="black" stroke-width="2" fill="none" />
<polyline points="451.0,308.0,450.0,316.5,455.0,319.0,462.0,321.5,474.0,321.5,476.5,325.0" stroke="black" stroke-width="2" fill="none" />
<polyline points="479.5,339.0,471.5,336.0,463.5,336.0" stroke="black" stroke-width="2" fill="none" />
<polyline points="449.0,330.0,448.0,320.0,440.0,324.0,428.0,327.0,420.5,328.5,413.0,328.5,405.0,328.0,396.5,322.5,388.5,326.5,380.5,326.0,380.5,318.0" stroke="black" stroke-width="2" fill="none" />
<polyline points="367.0,311.5,359.0,314.5,351.0,319.5" stroke="black" stroke-width="2" fill="none" />
<polyline points="354.0,307.0,346.0,303.0" stroke="black" stroke-width="2" fill="none" />
<polyline points="346.0,300.0,348.0,308.0,347.5,307.5,354.0,309.5,366.5,298.0,367.5,303.0" stroke="black" stroke-width="2" fill="none" />
<polyline points="353.0,286.5,353.0,289.5,356.0,298.0,358.0,306.5,349.5,314.5,351.5,322.5,346.5,329.0,360.0,323.0,368.5,327.5,376.5,330.5,379.5,320.5,387.5,320.0,390.5,323.0,407.0,322.5,412.0,321.0,412.5,324.5,420.5,322.5,422.5,316.5,430.5,312.0" stroke="black" stroke-width="2" fill="none" />
<polyline points="428.5,315.0,431.5,319.5,428.0,327.5,425.0,335.5" stroke="black" stroke-width="2" fill="none" />
<polyline points="411.0,314.5,419.0,310.5" stroke="black" stroke-width="2" fill="none" />
<polyline points="427.5,305.0,435.5,305.0,437.0,310.0,435.0,318.0,438.0,326.5,441.5,329.0,447.5,332.0,460.0,332.5,468.0,333.0,476.0,333.5,485.5,339.5,493.5,340.5,501.5,340.0,509.0,339.5" stroke="black" stroke-width="2" fill="none" />
<polyline points="456.5,332.5,450.5,324.5,455.0,319.5,448.5,315.5,448.0,307.5" stroke="black" stroke-width="2" fill="none" />
<polyline points="389.5,287.0,390.5,279.0,395.0,270.5" stroke="black" stroke-width="2" fill="none" />
<polyline points="357.0,281.0,363.0,288.5,365.0,298.5,369.5,306.5,366.0,315.0,361.5,328.0" stroke="black" stroke-width="2" fill="none" />
<polyline points="364.0,325.0,356.5,326.0,348.5,324.0,341.0,323.5,333.0,325.5,325.0,326.0" stroke="black" stroke-width="2" fill="none" />
<polyline points="328.5,308.0,320.5,318.0,312.0,314.5,304.5,307.5" stroke="black" stroke-width="2" fill="none" />
<polyline points="303.5,304.5,311.0,303.5" stroke="black" stroke-width="2" fill="none" />
<polyline points="316.0,287.5,308.0,288.5,296.5,287.5" stroke="black" stroke-width="2" fill="none" />
<polyline points="276.5,284.0,288.0,292.5,293.0,300.0,285.0,308.0,285.5,315.0,277.5,320.5,279.5,324.5,289.5,323.0,297.5,322.0,301.5,318.5,309.5,325.0,316.0,325.5,318.5,321.5,324.5,315.5,333.0,318.5" stroke="black" stroke-width="2" fill="none" />
<polyline points="327.5,304.5,318.5,294.0,317.5,290.0,309.0,296.5,300.5,285.0,297.5,275.5,285.0,271.5,277.0,267.5" stroke="black" stroke-width="2" fill="none" />
<polyline points="274.0,270.5,282.0,273.5,289.5,277.0,297.5,282.5,295.5,291.0,301.5,305.0,306.5,313.0,311.5,319.0,316.5,321.0,315.5,325.5" stroke="black" stroke-width="2" fill="none" />
<polyline points="312.5,301.5,307.0,293.5,302.0,285.5,290.5,277.0,277.5,277.5" stroke="black" stroke-width="2" fill="none" />
<polyline points="272.5,257.5,264.5,258.5,254.5,258.5,241.5,260.0,233.5,256.0" stroke="black" stroke-width="2" fill="none" />
<polyline points="232.0,261.5,228.0,270.0,239.5,268.0" stroke="black" stroke-width="2" fill="none" />
<polyline points="234.5,264.0,225.5,270.0,217.5,268.5,205.5,278.0,204.5,282.0,201.5,289.5,193.0,285.5,186.0,291.0,179.0,295.5,185.0,291.5,191.5,283.0,196.0,275.0,200.5,272.0,205.0,261.5,208.0,251.5,209.5,244.0,206.5,249.5" stroke="black" stroke-width="2" fill="none" />
<polyline points="207.0,249.0,215.5,250.5,223.5,249.5,231.5,250.0,239.5,250.5,247.5,251.0,255.5,251.5,263.5,251.0,271.5,250.5,279.5,249.5,287.5,250.5,295.5,249.0,304.0,250.5" stroke="black" stroke-width="2" fill="none" />
<polyline points="299.0,246.5,290.5,247.0,281.5,247.0,273.5,247.5,265.5,247.0,257.0,245.5,249.5,245.5,243.0,245.0,235.0,246.0" stroke="black" stroke-width="2" fill="none" />
<polyline points="221.0,239.5,220.0,229.0,229.0,222.5,227.0,214.5,230.5,206.5,232.5,198.0,233.5,186.0,230.0,185.0,237.0,177.5,240.0,170.0,240.0,162.0,242.0,154.0,244.0,145.5,243.5,137.5,243.5,129.5,241.5,126.0" stroke="black" stroke-width="2" fill="none" />
<polyline points="259.5,116.0,268.5,112.5,266.0,120.0,267.0,128.0,268.5,133.0,268.5,140.5,272.0,147.5,272.0,155.0,273.5,163.0,275.5,171.0,280.5,179.0,282.5,187.0,280.0,195.0,283.0,202.0,286.0,210.0,288.0,218.0,291.0,225.0,292.5,233.0,305.5,241.5,304.5,255.0,305.5,256.5,310.5,264.5,316.0,273.0,322.0,281.0,328.0,289.0,321.0,297.5,313.0,304.0,321.5,297.5" stroke="black" stroke-width="2" fill="none" />
<polyline points="331.5,296.0,321.5,299.5,328.0,308.0,323.0,316.0,325.0,321.0,342.0,327.5" stroke="black" stroke-width="2" fill="none" />
<polyline points="286.5,330.0,278.5,330.5,270.0,330.5" stroke="black" stroke-width="2" fill="none" />
<polyline points="236.0,313.5,227.0,304.5,221.5,297.0,229.5,289.0,242.0,281.0" stroke="black" stroke-width="2" fill="none" />
<polyline points="226.5,254.5,218.5,254.5" stroke="black" stroke-width="2" fill="none" />
<polyline points="216.0,245.5,224.0,246.5,232.0,247.0,240.0,242.5,248.0,239.5,255.5,240.0,263.5,240.0,271.5,242.5,280.0,243.5,288.0,243.5,297.0,243.5" stroke="black" stroke-width="2" fill="none" />
<polyline points="296.0,259.5,288.5,259.5,280.5,263.0,272.5,270.5,264.5,267.5,256.5,266.5,248.0,268.5,240.0,270.5,231.5,273.5,223.5,277.0,215.0,282.0,206.0,293.0,192.5,295.0,188.5,298.0,180.5,297.0,172.5,289.0,165.0,288.5,157.0,286.0,148.0,284.0,140.5,279.0,132.5,276.0,124.5,273.0,117.0,268.0,108.5,267.0,101.0,265.0,93.0,265.0,85.0,264.5,77.0,268.5,69.0,262.5,60.5,261.0,51.5,258.0,44.0,259.5,36.0,260.5,26.5,258.5,18.5,264.5" stroke="black" stroke-width="2" fill="none" />
<polyline points="21.0,266.5,29.0,264.0" stroke="black" stroke-width="2" fill="none" />
<polyline points="31.0,250.0,23.0,254.5,15.0,258.5" stroke="black" stroke-width="2" fill="none" />
<polyline points="18.5,273.0,10.5,273.0" stroke="black" stroke-width="2" fill="none" />
<polyline points="29.0,310.0,37.5,307.5,45.0,306.5" stroke="black" stroke-width="2" fill="none" />
<polyline points="46.5,311.0,38.5,312.0,30.5,311.0" stroke="black" stroke-width="2" fill="none" />
<polyline points="30.0,321.5,20.0,328.5,13.0,336.0,5.5,336.0,19.5,333.5,24.0,325.5" stroke="black" stroke-width="2" fill="none" />
<polyline points="35.0,330.5,37.5,339.0" stroke="black" stroke-width="2" fill="none" />
<polyline points="60.5,332.5,68.5,330.5,61.5,326.0,63.5,326.0,71.5,323.0,77.5,327.5,85.5,322.5" stroke="black" stroke-width="2" fill="none" />
<polyline points="87.5,319.5,77.5,327.5,72.0,327.5,65.5,328.0,61.5,334.5,69.5,335.5,77.0,333.5,81.5,327.5,87.5,323.5,95.5,328.5,101.0,318.5,102.0,324.5,107.0,328.5,115.5,325.5,123.5,321.0,126.5,327.0,134.5,326.0,142.0,328.5,150.0,329.0,158.0,329.0,160.0,328.0,168.0,322.0,181.0,313.0" stroke="black" stroke-width="2" fill="none" />
<polyline points="188.5,305.0,187.5,313.0,183.0,320.5,192.0,322.5" stroke="black" stroke-width="2" fill="none" />
<polyline points="191.0,319.5,186.0,314.0,182.0,322.0,172.5,327.0,168.5,325.0,168.5,317.0" stroke="black" stroke-width="2" fill="none" />
<polyline points="152.5,313.0,157.0,305.0,158.0,297.0,159.0,289.0" stroke="black" stroke-width="2" fill="none" />
<polyline points="149.0,285.0,148.5,292.5,148.5,300.5,148.5,309.0,149.5,309.5" stroke="black" stroke-width="2" fill="none" />
<polyline points="130.0,333.0,121.5,333.0,113.5,332.0,105.5,333.0" stroke="black" stroke-width="2" fill="none" />
<polyline points="94.5,331.5,87.0,332.0" stroke="black" stroke-width="2" fill="none" />
<polyline points="80.5,310.5,72.5,309.5" stroke="black" stroke-width="2" fill="none" />
<polyline points="94.0,300.5,90.0,299.5,92.5,294.5,96.5,294.5,98.5,286.5,95.5,291.0" stroke="black" stroke-width="2" fill="none" />
<polyline points="82.5,279.5,75.5,272.0,66.5,279.5,65.5,289.5,69.5,281.0,71.0,273.0,72.5,265.0,64.5,269.5" stroke="black" stroke-width="2" fill="none" />
<polyline points="69.0,268.5,63.0,272.0,65.0,264.5" stroke="black" stroke-width="2" fill="none" />
<polyline points="55.5,270.0,59.5,281.0,59.5,289.5" stroke="black" stroke-width="2" fill="none" />
<polyline points="70.0,278.0,69.5,277.0,76.5,269.0" stroke="black" stroke-width="2" fill="none" />
<polyline points="81.0,264.0,77.0,272.0,83.0,280.0" stroke="black" stroke-width="2" fill="none" />
<polyline points="119.0,268.0,129.0,275.5" stroke="black" stroke-width="2" fill="none" />
<polyline points="207.5,237.0,215.5,236.0,223.5,235.0" stroke="black" stroke-width="2" fill="none" />
<polyline points="217.5,239.5,225.5,242.5" stroke="black" stroke-width="2" fill="none" />
<polyline points="239.0,216.0,230.5,205.0" stroke="black" stroke-width="2" fill="none" />
<polyline points="227.0,212.0,235.0,213.0,232.0,215.0,226.5,227.5,228.5,229.5,228.0,223.5,232.0,229.5,237.5,224.0,241.0,231.0,236.0,237.0" stroke="black" stroke-width="2" fill="none" />
<polyline points="262.5,237.0,254.5,237.0,244.5,236.0,245.5,228.5,247.5,221.0,249.5,213.0" stroke="black" stroke-width="2" fill="none" />
<polyline points="248.0,195.5,256.5,198.0,265.0,195.5,274.5,199.5" stroke="black" stroke-width="2" fill="none" />
<polyline points="278.0,193.0,270.0,193.0,261.5,192.0,253.5,192.0,249.5,185.0,241.0,192.0,233.5,192.0,233.0,186.0" stroke="black" stroke-width="2" fill="none" />
<polyline points="230.0,182.5,238.0,172.5,249.0,170.5,252.5,160.5,258.5,162.0,262.5,162.0" stroke="black" stroke-width="2" fill="none" />
<polyline points="268.5,152.0,268.0,141.5,260.0,136.0,254.5,140.5,251.5,148.5" stroke="black" stroke-width="2" fill="none" />
<polyline points="251.5,156.0,244.0,163.0" stroke="black" stroke-width="2" fill="none" />
<polyline points="256.0,172.0,252.0,176.5,244.0,178.5" stroke="black" stroke-width="2" fill="none" />
<polyline points="233.5,194.5,243.5,204.5,239.0,204.5,239.0,212.5,238.0,223.0,249.0,213.0,257.5,212.0,261.5,213.0,266.0,221.0,268.0,229.0,269.0,241.0" stroke="black" stroke-width="2" fill="none" />
<polyline points="275.5,220.0,276.0,214.0,288.5,218.5" stroke="black" stroke-width="2" fill="none" />
<polyline points="281.0,223.5,277.0,229.0,278.5,227.5,276.0,227.0,272.0,215.0,271.0,207.0" stroke="black" stroke-width="2" fill="none" />
<polyline points="269.0,205.5,269.0,213.5,273.5,216.5,272.5,224.5,273.0,232.0,277.5,232.5,278.5,236.5,283.5,231.0,294.5,235.0,302.5,237.0" stroke="black" stroke-width="2" fill="none" />
<polyline points="297.5,265.5,295.0,274.0,301.5,282.0,310.5,283.5,299.5,291.5,298.5,297.5" stroke="black" stroke-width="2" fill="none" />
<polyline points="273.0,125.5,270.0,118.0,265.5,118.0" stroke="black" stroke-width="2" fill="none" />
<polyline points="258.0,55.5,260.0,47.5,260.0,41.5,251.5,42.5" stroke="black" stroke-width="2" fill="none" />
<polyline points="251.5,50.5,255.5,54.0,256.5,62.0" stroke="black" stroke-width="2" fill="none" />
<polyline points="17.5,234.5,5.5,235.5,3.5,227.5" stroke="black" stroke-width="2" fill="none" />
<polyline points="1.0,227.5,9.0,229.5,7.5,234.5,11.5,236.0,14.5,244.0,17.0,248.0,25.0,247.5,29.0,250.5,24.0,258.5,21.5,260.5,17.5,272.5" stroke="black" stroke-width="2" fill="none" />
<polyline points="5.0,330.5,13.0,329.0,15.0,332.0,4.5,333.5,6.5,339.0,14.5,338.5,22.0,338.5,30.5,338.5,37.5,338.5,45.5,338.5,53.5,338.0,61.5,338.0" stroke="black" stroke-width="2" fill="none" />
</svg>