<svg xmlns="http://www.w3.org/2000/svg" version="1.1"><polyline points="66.5,34.0,64.5,42.0,57.5,50.0,49.5,58.5,42.0,66.5,34.0,75.0,32.5,67.0,41.0,60.5,49.0,53.0,53.0,41.0,61.0,41.0" stroke="black" stroke-width="2" fill="none" />
<polyline points="59.5,41.5,53.5,44.5,50.5,52.5,42.0,60.0,30.0,68.5,31.0,76.0,38.5,70.5,46.5,62.5,54.0,56.0,62.0,46.0" stroke="black" stroke-width="2" fill="none" />
<polyline points="151.0,137.0,146.5,145.0,139.5,153.0,132.0,161.0,123.0,169.0,126.0,164.5,134.0,158.5,142.5,150.5,150.5,140.0,154.5,137.5,162.5,131.5" stroke="black" stroke-width="2" fill="none" />
<polyline points="135.5,163.5,130.5,171.5,132.0,170.5" stroke="black" stroke-width="2" fill="none" />
<polyline points="67.5,228.0,59.0,234.5,52.0,241.5,44.0,251.5,36.0,258.0,28.0,265.0,41.0,262.0,48.0,254.0,56.0,246.5,64.0,238.5,66.5,230.0" stroke="black" stroke-width="2" fill="none" />
<polyline points="68.0,235.5,60.0,242.5,52.0,251.0,44.0,258.0,36.0,266.0,30.5,270.0,30.5,262.0,41.0,253.5,51.0,245.5,54.0,237.5,57.5,234.5" stroke="black" stroke-width="2" fill="none" />
<polyline points="148.5,330.0,156.5,329.5,164.5,325.0" stroke="black" stroke-width="2" fill="none" />
<polyline points="148.0,335.5,143.0,343.5,135.5,351.5,126.5,359.5,130.5,355.5,138.0,348.5,146.0,339.5" stroke="black" stroke-width="2" fill="none" />
<polyline points="133.5,359.0,125.5,363.0" stroke="black" stroke-width="2" fill="none" />
<polyline points="137.0,432.5,133.0,440.5" stroke="black" stroke-width="2" fill="none" />
<polyline points="136.5,443.5,137.5,435.5" stroke="black" stroke-width="2" fill="none" />
<polyline points="119.5,438.5,120.5,446.5,122.5,438.5,131.0,435.5,139.5,434.5,147.5,433.0,155.5,428.0,163.5,420.0,171.5,414.0,179.5,407.0,187.5,397.0,195.5,388.0,203.5,377.0" stroke="black" stroke-width="2" fill="none" />
<polyline points="220.5,361.5,228.5,364.5,236.0,365.5,243.5,365.5,251.5,365.0,260.0,364.5,268.0,364.5,276.0,365.0,284.0,363.0,291.5,363.5,299.5,363.5,308.0,363.5,316.0,365.5,324.0,364.0" stroke="black" stroke-width="2" fill="none" />
<polyline points="322.0,368.0,330.0,376.0,338.0,389.0,346.0,402.0,354.0,415.5,361.5,429.5,369.5,431.5,377.5,431.0,385.0,433.0,393.0,435.0,400.5,438.0" stroke="black" stroke-width="2" fill="none" />
<polyline points="397.5,437.5,405.5,445.5" stroke="black" stroke-width="2" fill="none" />
<polyline points="414.5,453.5,422.5,447.5,430.0,438.5,437.5,426.5,447.5,423.5" stroke="black" stroke-width="2" fill="none" />
<polyline points="449.0,422.0,439.0,426.0,435.5,434.5,427.0,442.5,420.0,450.5,424.5,454.0,418.5,460.0,415.5,461.5,424.0,455.5,425.0,452.0,434.0,446.0,442.5,438.0,450.5,429.0" stroke="black" stroke-width="2" fill="none" />
<polyline points="451.5,422.5,447.0,430.5,438.5,439.0,432.0,446.5" stroke="black" stroke-width="2" fill="none" />
<polyline points="345.0,412.5,337.0,396.0" stroke="black" stroke-width="2" fill="none" />
<polyline points="339.0,395.5,342.5,403.5,347.5,412.0,351.0,420.0,350.0,427.0" stroke="black" stroke-width="2" fill="none" />
<polyline points="342.5,440.0,335.0,437.5" stroke="black" stroke-width="2" fill="none" />
<polyline points="334.0,438.5,334.5,446.5,333.5,444.5" stroke="black" stroke-width="2" fill="none" />
<polyline points="330.0,442.5,337.5,445.5,340.5,443.0,345.0,443.0" stroke="black" stroke-width="2" fill="none" />
<polyline points="354.0,439.5,346.0,433.5,338.0,432.0,329.5,435.0" stroke="black" stroke-width="2" fill="none" />
<polyline points="332.5,431.0,326.0,439.0,326.0,447.0" stroke="black" stroke-width="2" fill="none" />
<polyline points="327.5,445.0,335.5,452.0" stroke="black" stroke-width="2" fill="none" />
<polyline points="353.0,421.5,345.5,407.5,337.5,396.5,331.5,392.0,323.5,377.0,315.0,371.0" stroke="black" stroke-width="2" fill="none" />
<polyline points="314.5,370.5,314.5,378.5,314.0,386.5,313.5,394.5,315.5,402.5,315.5,410.5" stroke="black" stroke-width="2" fill="none" />
<polyline points="312.5,400.0,311.5,392.0,309.0,384.5,309.5,376.5,309.0,368.5,301.0,368.0,293.0,366.0,285.0,366.0,277.0,366.0" stroke="black" stroke-width="2" fill="none" />
<polyline points="272.5,360.5,281.0,360.5,289.5,360.0,298.0,360.0,306.0,360.5,314.5,358.0" stroke="black" stroke-width="2" fill="none" />
<polyline points="316.5,351.0,309.0,344.0,311.0,353.0,303.0,354.0,302.5,348.0,294.5,347.0,286.5,347.0,279.0,345.5,271.0,345.5,263.0,346.0,255.0,346.5,247.0,347.5,239.0,348.5,231.0,348.0,223.0,348.0,223.0,340.0,226.5,332.5,229.5,324.5,233.0,316.5,236.0,308.5,239.0,301.0,242.0,293.5,240.5,286.0,242.5,278.0,245.5,270.0,247.5,262.0,250.0,253.5,251.0,245.5,253.5,237.5,253.5,229.5,255.5,221.5,256.0,214.0,257.5,206.0,257.5,197.5,257.0,189.5,258.5,181.5,260.0,173.5,260.0,165.0,260.0,157.0,260.0,149.0,261.0,141.0,262.5,133.0,261.5,125.5,260.0,117.5,263.0,109.5,265.0,101.5,265.0,93.5,267.0,85.0,266.5,77.0,266.5,76.0" stroke="black" stroke-width="2" fill="none" />
<polyline points="272.0,76.0,273.0,84.0,273.0,91.5,272.5,100.0,276.5,108.5,276.5,116.5,276.5,124.5,276.0,132.5,276.0,141.0,278.0,149.0,278.0,156.5,279.0,164.5,279.0,173.0,281.0,181.0,281.5,189.0,282.0,197.0,283.0,204.5,284.0,212.5,284.0,220.5,285.5,228.5,286.5,236.0,287.5,244.0,288.0,252.0,289.0,260.0,290.0,267.5,297.5,276.5,305.5,289.5" stroke="black" stroke-width="2" fill="none" />
<polyline points="288.0,274.5,280.0,275.0,272.0,274.5,264.0,275.5,256.0,277.0,249.0,276.0,251.0,268.0,253.0,260.0,255.0,252.0,255.5,244.0,258.0,236.0,259.0,228.0,261.0,220.0,261.0,212.0,260.5,204.0,262.5,195.5,262.0,187.5,262.0,179.5,262.0,171.5,264.5,163.5,266.0,155.5,265.5,147.5,265.5,139.5,265.5,131.0,265.5,123.0,265.5,114.5,260.5,114.5" stroke="black" stroke-width="2" fill="none" />
<polyline points="264.5,111.5,272.5,113.5,279.5,118.0,280.5,126.5,280.5,134.5,280.5,142.5,281.0,150.5,282.0,159.0,283.5,167.0,283.5,175.0,284.5,183.0,286.5,191.0,287.0,199.0,287.0,207.0,287.5,214.5,288.5,222.5,288.5,231.0,289.5,239.0,290.5,247.0,291.5,255.5,293.0,263.0,295.5,271.0,299.5,279.0,304.5,287.0,300.5,290.0,301.0,288.0,299.0,295.0,300.5,302.5,302.0,310.0,304.0,318.0,305.0,326.0,307.0,334.0,316.0,342.0,321.0,350.0,324.0,353.0,325.0,361.0,323.0,370.0,331.5,377.5,335.5,385.5,340.5,393.5,345.5,401.5,350.0,410.0,354.0,418.0,358.5,426.5,353.5,435.5,348.5,441.5,352.5,442.5,358.5,435.5,355.0,437.5,358.0,439.5" stroke="black" stroke-width="2" fill="none" />
<polyline points="315.5,432.0,308.0,432.0,300.0,432.0,292.0,432.0,283.5,432.0,276.0,432.0,268.5,432.5,260.5,432.5,252.5,433.0,244.0,433.5,235.5,434.0,227.0,434.5,219.0,434.5,211.0,434.5,203.5,433.0" stroke="black" stroke-width="2" fill="none" />
<polyline points="202.0,428.5,210.0,427.5,218.0,427.5,226.0,427.0,234.0,425.5,241.5,425.5,249.5,425.5,257.5,425.5,266.0,425.5,274.0,426.0,282.0,426.0,290.0,426.0,298.0,425.5,305.5,426.0,313.5,426.0,321.5,427.5,329.5,428.0,337.5,429.0,343.5,437.0" stroke="black" stroke-width="2" fill="none" />
<polyline points="347.0,440.5,349.0,433.5,347.0,422.0,344.0,414.0,340.0,406.0,336.0,398.0,333.5,390.0" stroke="black" stroke-width="2" fill="none" />
<polyline points="316.0,370.5,323.0,378.5,327.0,387.0,330.0,395.0,335.5,403.5,338.5,411.5,342.5,420.0,345.0,428.0,337.0,440.0,330.0,440.0,332.0,448.0,341.0,452.0" stroke="black" stroke-width="2" fill="none" />
<polyline points="310.0,402.0,301.5,391.0,293.5,384.5,285.5,381.0,277.0,378.5,269.0,379.0,261.0,379.0,253.0,379.0,244.5,381.0,236.5,384.0,228.5,387.0,221.0,393.0,213.0,400.0,205.0,410.0,197.0,426.5,189.0,429.0,181.5,429.0,173.5,428.5,165.5,430.5,158.0,432.5" stroke="black" stroke-width="2" fill="none" />
<polyline points="119.0,445.5,127.0,449.5,135.0,452.0,143.0,453.0,151.0,454.5,159.0,454.5,167.0,456.0,175.0,456.5,183.0,456.5,190.5,457.5,198.5,458.5,206.5,459.0,214.5,459.0,222.5,460.5,230.5,460.5,239.0,461.0,247.0,462.0,255.5,462.5,263.5,462.5,272.0,462.0,280.0,461.5,288.0,461.5,295.5,461.5,303.5,460.5,311.0,460.5,318.5,459.0,326.5,458.5,334.0,458.0,342.0,458.0,350.5,457.0,358.5,456.5,366.5,455.5,374.5,454.0,382.0,453.0,390.0,450.5,398.0,448.5" stroke="black" stroke-width="2" fill="none" />
<polyline points="316.0,350.0,313.5,349.5,298.5,344.0,301.5,331.5,299.5,323.0,298.5,315.0,296.5,307.0,294.5,299.0,292.5,291.0,292.5,283.0,288.0,280.5,280.0,280.5,272.5,281.0,264.5,283.5,256.5,283.5,249.0,284.0,241.0,284.0" stroke="black" stroke-width="2" fill="none" />
<polyline points="245.5,284.0,248.5,291.5,245.5,299.5,241.5,307.0,239.5,315.0,236.0,322.5,233.0,330.0,229.0,338.0,230.0,336.0,232.5,318.5,242.5,304.5" stroke="black" stroke-width="2" fill="none" />
<polyline points="253.5,305.5,261.5,297.5,269.5,298.0,277.0,298.0,281.0,302.0,280.5,309.5,283.0,318.0,284.0,326.0,286.0,334.0" stroke="black" stroke-width="2" fill="none" />
<polyline points="283.5,336.5,282.0,328.5,280.5,321.0,280.5,313.0,278.5,305.0,275.5,301.0,267.5,301.0,259.5,303.5" stroke="black" stroke-width="2" fill="none" />
<polyline points="258.0,299.0,255.5,307.0,253.0,315.0,250.0,323.5,247.0,332.0,248.0,342.0,256.5,342.0,265.0,342.0" stroke="black" stroke-width="2" fill="none" />
<polyline points="261.5,344.5,253.0,344.5,245.0,344.5,237.5,344.5,229.5,344.0" stroke="black" stroke-width="2" fill="none" />
<polyline points="220.5,343.0,212.5,346.0,204.5,351.5" stroke="black" stroke-width="2" fill="none" />
<polyline points="210.5,351.0,218.5,349.0,226.5,356.0,227.0,352.5,235.0,352.5,243.0,352.0,251.0,352.5,258.5,353.0,266.5,353.0,274.5,353.0,282.5,353.5,290.5,351.0,298.5,351.0,306.5,351.0,310.0,356.0" stroke="black" stroke-width="2" fill="none" />
<polyline points="287.5,382.0,300.5,390.5,306.0,398.0" stroke="black" stroke-width="2" fill="none" />
<polyline points="310.5,411.0,302.5,396.0,294.0,389.0,286.0,384.5,277.5,383.5,269.5,381.5,261.5,381.5,253.5,383.0,245.5,384.5,237.5,387.5,229.5,390.5,221.0,396.5,213.0,405.0,205.5,415.0,196.5,426.0,200.5,418.0,204.5,409.5,211.5,401.5,219.5,394.0,230.0,386.0" stroke="black" stroke-width="2" fill="none" />
<polyline points="248.0,384.0,230.0,392.0,219.5,400.0,211.0,408.0,206.0,416.0,202.0,424.5,202.5,435.0,208.0,437.0,216.0,437.0,224.5,437.0,232.5,437.5,240.5,437.0,248.5,437.0,256.5,437.0,264.5,437.0,272.5,437.0,280.0,436.5,287.5,436.5,295.0,436.5,303.0,436.5,311.0,436.5,319.0,436.5,331.0,433.0,339.0,432.0,341.0,438.0" stroke="black" stroke-width="2" fill="none" />
<polyline points="309.5,408.5,303.5,400.5,298.5,392.0,286.0,384.0" stroke="black" stroke-width="2" fill="none" />
<polyline points="226.0,358.0,218.0,358.0" stroke="black" stroke-width="2" fill="none" />
<polyline points="216.5,359.5,217.5,350.5" stroke="black" stroke-width="2" fill="none" />
<polyline points="212.5,350.0,210.5,358.0,212.5,366.0,209.0,373.5,205.0,381.0,199.0,389.0,193.0,396.5,185.0,404.5,178.0,412.5,168.0,420.5,159.0,429.0,149.0,437.0,140.0,443.0,141.0,445.5,148.5,439.5,150.5,437.5,158.5,430.5,166.5,423.5,174.5,417.5,182.5,409.0,190.5,400.0,198.5,390.0,206.0,377.5" stroke="black" stroke-width="2" fill="none" />
<polyline points="213.0,346.0,207.5,354.0,210.5,363.0,207.0,371.0,202.5,378.5,196.0,386.0,189.0,394.0,183.0,402.5,174.0,411.0,164.0,419.0,155.5,427.0,155.5,436.0,151.5,444.0,156.0,444.5,142.0,446.5" stroke="black" stroke-width="2" fill="none" />
<polyline points="137.5,525.5,145.5,531.0,138.5,527.0,137.5,531.0,145.5,526.5,158.5,529.5" stroke="black" stroke-width="2" fill="none" />
<polyline points="25.0,526.5,17.0,522.5" stroke="black" stroke-width="2" fill="none" />
<polyline points="14.0,520.5,22.0,521.5" stroke="black" stroke-width="2" fill="none" />
<polyline points="2.5,514.0,10.0,513.5,18.0,513.5,26.0,513.0,34.0,513.0,41.5,513.0,49.5,513.5,57.5,514.0,65.0,514.0,73.0,514.5,81.0,514.0,89.0,514.5,97.5,514.5,106.0,514.5,114.5,514.0,122.5,513.5,131.0,513.5,138.5,513.0,146.5,513.0,154.0,512.5,162.5,512.5,170.0,512.5,178.0,513.0,186.5,513.0,194.5,513.5,202.5,513.5,210.5,513.0,218.5,513.0,226.5,513.0,235.0,512.5,243.0,513.0,251.0,513.0,258.5,513.0,266.0,513.0,274.0,513.0,282.0,513.0,290.0,513.0,298.0,513.0,306.0,513.5,313.5,513.5,321.5,513.5,329.5,513.5,338.0,513.0,346.0,512.5,354.0,512.5,362.0,512.5,370.0,512.5,378.0,512.5,386.0,512.5,394.0,512.5,402.0,512.5,410.0,512.5,418.0,512.5,426.0,512.5,434.5,512.5,442.5,512.5,450.0,512.5,458.0,512.5,466.0,512.5,473.5,512.5,482.0,512.5,490.0,512.0,498.0,512.0,506.0,512.0" stroke="black" stroke-width="2" fill="none" />
<polyline points="335.0,350.5,344.0,342.5,351.0,334.5,356.0,326.0" stroke="black" stroke-width="2" fill="none" />
<polyline points="355.0,324.0,343.5,332.0,339.5,336.5,332.0,344.5,330.0,356.0,337.5,346.5,346.0,337.5,354.5,331.0" stroke="black" stroke-width="2" fill="none" />
<polyline points="354.5,323.5,346.0,329.0,339.0,335.0,331.5,346.0,323.5,353.0,314.0,342.0,306.0,339.0,303.0,341.0,298.5,337.0,290.5,337.5,278.5,339.0,270.5,339.0,262.5,339.0,254.5,338.5,246.5,341.5,243.0,336.5,246.0,329.0,248.0,321.0,251.0,313.0,253.0,305.5,258.0,297.0" stroke="black" stroke-width="2" fill="none" />
<polyline points="246.5,246.0,239.0,256.0,230.5,262.0,222.5,267.0,232.0,261.0,240.0,253.0,248.0,245.0" stroke="black" stroke-width="2" fill="none" />
<polyline points="248.0,233.5,240.5,245.5,232.5,254.5,224.5,261.5,221.5,265.0,229.5,257.5,236.5,249.5,244.0,241.0,246.0,233.5" stroke="black" stroke-width="2" fill="none" />
<polyline points="318.5,164.5,317.5,173.0,325.5,169.0" stroke="black" stroke-width="2" fill="none" />
<polyline points="355.0,137.5,347.5,144.5,339.5,153.5,331.0,163.0,335.0,157.0,342.5,149.5,350.0,141.5,355.0,133.5" stroke="black" stroke-width="2" fill="none" />
<polyline points="354.5,133.0,345.0,137.5,338.5,144.5,330.5,155.5,322.0,162.5,325.0,168.5,322.5,162.5,331.5,155.0,337.5,147.0,340.5,139.0,355.5,132.5" stroke="black" stroke-width="2" fill="none" />
<polyline points="415.5,68.0,423.5,63.0,431.5,54.0,439.5,40.5,449.5,37.0" stroke="black" stroke-width="2" fill="none" />
<polyline points="450.0,36.0,444.5,44.0,434.0,49.0,427.0,57.0,420.5,65.0,422.5,71.0,413.5,71.5,417.5,75.0,425.5,67.0,431.5,60.5,440.0,51.5,447.5,45.5" stroke="black" stroke-width="2" fill="none" />
<polyline points="451.0,37.5,447.0,45.5,438.0,53.5,431.5,61.5,423.5,68.5" stroke="black" stroke-width="2" fill="none" />
<polyline points="450.0,228.5,444.0,237.0,435.5,241.0,426.5,248.5,422.0,256.5,413.0,264.5,416.5,269.0,416.0,262.0,424.5,254.5,431.5,255.5,440.0,246.5,447.5,239.5" stroke="black" stroke-width="2" fill="none" />
<polyline points="452.0,231.0,447.5,239.0,438.5,247.5,432.0,255.5,423.0,263.5" stroke="black" stroke-width="2" fill="none" />
<polyline points="426.0,249.0,434.0,243.5,443.5,236.5,452.0,229.5" stroke="black" stroke-width="2" fill="none" />
<polyline points="260.0,40.5,252.0,49.0,244.0,57.0,236.0,65.0,228.0,73.5,220.0,74.5,231.0,70.0,240.0,61.5,246.5,53.5,255.5,46.0,259.5,38.0" stroke="black" stroke-width="2" fill="none" />
<polyline points="258.0,35.0,246.0,41.5,244.0,49.5,236.0,57.0,227.5,65.0,219.5,73.5,223.5,67.5,231.5,60.0,240.0,52.0,247.0,40.0,256.5,36.0" stroke="black" stroke-width="2" fill="none" />
<polyline points="67.0,419.5,65.0,428.0,58.0,436.0,49.0,444.0,41.5,452.5,33.5,461.0,34.5,451.0,43.0,446.0,51.0,436.0,54.0,426.0" stroke="black" stroke-width="2" fill="none" />
<polyline points="59.0,426.5,53.0,429.5,50.0,438.0,41.0,446.0,30.5,454.0,32.0,462.0,40.0,454.5,48.0,447.5,56.0,439.5,64.5,430.5" stroke="black" stroke-width="2" fill="none" />
</svg>